<?xml version="1.0" encoding="UTF-8" standalone="no"?>
<!-- Created with Inkscape (http://www.inkscape.org/) -->

<svg
   xmlns:dc="http://purl.org/dc/elements/1.1/"
   xmlns:cc="http://creativecommons.org/ns#"
   xmlns:rdf="http://www.w3.org/1999/02/22-rdf-syntax-ns#"
   xmlns:svg="http://www.w3.org/2000/svg"
   xmlns="http://www.w3.org/2000/svg"
   xmlns:sodipodi="http://sodipodi.sourceforge.net/DTD/sodipodi-0.dtd"
   xmlns:inkscape="http://www.inkscape.org/namespaces/inkscape"
   width="10in"
   height="9.8319998in"
   viewBox="0 0 254.00001 249.7328"
   version="1.1"
   id="svg8"
   inkscape:version="0.92.1 r15371"
   sodipodi:docname="b sea logo.svg">
  <defs
     id="defs2" />
  <sodipodi:namedview
     id="base"
     pagecolor="#ffffff"
     bordercolor="#666666"
     borderopacity="1.0"
     inkscape:pageopacity="0.0"
     inkscape:pageshadow="2"
     inkscape:zoom="0.24748737"
     inkscape:cx="-41.766004"
     inkscape:cy="395.2541"
     inkscape:document-units="in"
     inkscape:current-layer="layer1"
     showgrid="false"
     inkscape:pagecheckerboard="true"
     fit-margin-top="0"
     fit-margin-left="0"
     fit-margin-right="0"
     fit-margin-bottom="0"
     inkscape:window-width="1366"
     inkscape:window-height="705"
     inkscape:window-x="-8"
     inkscape:window-y="-8"
     inkscape:window-maximized="1"
     units="in" />
  <metadata
     id="metadata5">
    <rdf:RDF>
      <cc:Work
         rdf:about="">
        <dc:format>image/svg+xml</dc:format>
        <dc:type
           rdf:resource="http://purl.org/dc/dcmitype/StillImage" />
        <dc:title></dc:title>
      </cc:Work>
    </rdf:RDF>
  </metadata>
  <g
     inkscape:label="Layer 1"
     inkscape:groupmode="layer"
     id="layer1"
     transform="translate(-74.938283,176.07979)">
    <path
       style="fill:#000000;stroke-width:1.71029067"
       d="m 289.35287,29.641404 c -7.1894,8.893704 -16.95398,4.692137 -25.20732,0.234233 -7.98435,-7.66957 -14.93449,-17.496299 -21.97169,-26.6012763 -4.7982,-10.1426813 -11.9686,-20.5531377 -9.45365,-32.3369217 3.64792,-2.854234 15.45141,-0.690131 18.86039,4.420036 -0.19454,9.470202 18.96637,22.3673913 21.85793,8.44731 5.20351,-13.739231 -8.73206,-19.836565 -12.17394,-30.926237 -1.78593,-10.483854 0.52092,-22.368768 -7.16872,-31.329159 -9.26389,-7.97803 -9.79128,-20.877369 -12.49456,-31.980619 -6.40027,-8.91378 -18.67601,-17.58305 -7.44256,-28.453 5.66898,-14.89872 -12.39301,-24.07003 -23.834,-19.11964 -13.5924,-6.57426 -29.69331,-9.42885 -44.06974,-3.52063 -10.43508,5.00177 -21.38458,9.67733 -30.54914,16.80863 -5.05853,-2.4871 11.90385,-10.2105 15.31093,-13.28354 21.86084,-10.01144 46.82683,-15.25963 70.73407,-10.54107 10.82825,4.14388 22.32668,6.74158 32.54846,12.74102 10.25074,6.28189 20.66202,12.28071 28.38248,21.99005 8.15478,7.86545 17.53986,17.27857 22.60829,28.67957 10.16943,17.185634 14.80542,36.743934 17.43658,56.349175 0.0678,16.3641 -2.72061,33.199951 -9.84331,48.03085043 C 305.92193,10.136774 296.50912,19.023869 289.35287,29.641404 Z M 98.60229,-12.092378 c 9.36881,-2.510766 8.18671,-13.811183 14.43696,-19.716656 7.23046,-9.929815 14.55405,-20.128698 23.56416,-28.82085 4.79454,-9.236847 23.84524,-15.389341 20.38896,-25.20951 -10.25521,7.245929 -19.29659,16.382735 -28.41358,24.987399 -11.43372,15.101177 -25.99514,29.63272 -29.9765,48.759617 z m 11.97005,9.0150148 c 7.47714,6.5955833 8.27909,-16.9386528 11.63835,-21.5504598 6.62985,-9.316085 11.12545,-20.651148 19.06317,-29.427062 7.62718,-12.105699 -7.82601,-1.472836 -8.47728,4.399594 -11.04727,13.479306 -17.61497,30.014998 -22.22424,46.5779278 z M 226.81053,24.143502 c 0.67525,1.659445 1.54947,3.414665 3.26914,4.2497 5.99032,-2.521471 -8.95435,-17.178769 -3.26914,-4.2497 z m -4.74573,7.466809 c 8.80459,7.302646 -1.38845,-13.514696 -0.97689,-16.333727 -2.44432,-4.634816 -4.81369,-34.887131 -7.91513,-20.0565478 0.25917,12.8153278 3.61483,25.2762288 8.89202,36.3902748 z m -37.8499,1.096802 1.17375,2.101798 0.90072,1.00223 c 1.66009,-9.086437 -4.64276,-20.824888 -6.78035,-30.5585701 -5.98413,5.5500111 1.41221,19.7859681 4.70588,27.4545421 z m -9.54004,1.383544 h -6e-5 l 0.60869,1.632182 c 2.44799,9.429439 7.701,5.302299 3.10742,-2.266187 -7.69757,-16.93511 -3.22246,-35.8063484 -1.54044,-53.493033 -7.11481,-1.550876 -4.28194,15.0633937 -6.28957,20.55837368 C 168.47845,11.999724 169.38233,23.58967 174.67486,34.090657 Z m 50.83667,32.25671 1.3e-4,-2e-5 c -9.4944,0.793281 -23.04694,6.829881 -30.82241,0.300695 -17.5096,-1.827902 -35.3585,-6.581606 -50.14929,-16.44948 C 128.45014,41.69332 112.14131,32.125339 101.98703,16.439887 93.608323,7.4216908 92.824249,-3.2441126 87.776289,-13.581603 c -10.233242,-24.690433 -4.896442,-52.720749 4.078817,-76.930605 5.142198,-9.674282 7.874838,-21.960002 17.165304,-28.490872 12.02182,-13.24216 28.34619,-20.75928 43.93533,-28.83719 11.55964,-8.08172 25.44523,-12.72451 39.66405,-11.61712 8.18611,5.90053 19.10206,7.71737 29.56386,8.7277 15.94566,7.88034 -10.04708,23.69122 5.00541,33.4995 9.73302,9.09198 11.88094,22.769391 14.84876,34.819241 5.23175,8.563643 16.41963,17.463766 11.44917,27.73842 -1.0642,13.496252 13.16486,21.27946 15.6769,33.379702 -9.5919,9.602698 -10.5017,-13.561233 -19.77225,-14.347869 -13.5346,3.039189 -14.10865,-15.251653 -26.1202,-14.023789 -15.49818,8.689158 -21.21181,-10.067097 -16.672,-22.086233 1.11669,-12.511411 8.47887,-24.463786 2.94214,-37.148592 -1.04896,-14.99052 -20.38928,-16.74783 -21.28665,-30.39975 -9.44775,-9.43365 -25.08444,-6.63049 -35.579,-0.26901 -3.23813,4.86364 13.75981,2.96204 18.07212,1.1936 13.17532,-0.51715 13.75774,15.90993 24.09424,20.43188 8.21999,5.78075 11.57764,19.302168 7.69396,27.97842 -2.96917,12.069744 -4.69504,24.847141 -3.2485,37.245362 2.49789,17.291365 23.34919,5.508467 31.83997,14.807612 -5.15919,8.648687 -4.79814,21.641612 0.40394,31.283179 3.91898,11.4993114 12.21072,20.352303 18.89975,30.149629 4.95325,10.550671 17.55317,15.631603 28.57637,16.850784 4.09717,4.294393 -12.7942,6.794058 -15.56476,11.917924 -11.53927,7.090725 -24.81748,10.980877 -37.93149,14.057047 z m -45.68392,5.603801 c 4.82084,0.867929 9.70956,1.299336 14.59704,1.563179 17.39893,0.03815 36.1987,1.566832 52.17787,-6.526716 14.40084,-4.928794 29.09878,-10.498763 39.85764,-21.759782 9.05514,-8.322409 17.21955,-17.522366 23.21135,-28.244572 9.22221,-8.4342106 11.55368,-22.2234047 14.85337,-33.919006 5.75727,-14.528407 5.44219,-30.607012 1.58287,-45.560084 -1.88236,-21.0985 -10.82692,-40.820447 -23.14602,-57.846427 -6.09798,-7.148 -10.04075,-17.12165 -19.27291,-21.47828 -5.58903,-9.85056 -18.17531,-14.33531 -27.63122,-20.17756 -13.51986,-7.19815 -28.71755,-11.18846 -43.75009,-13.89603 -32.00746,-1.77208 -65.00582,9.20077 -89.22647,30.30755 -9.55495,9.41097 -21.42166,17.35247 -27.89066,29.32306 -4.597327,10.03089 -11.439487,19.757999 -12.179367,31.015908 -4.897954,12.987768 -7.254351,26.850853 -7.800476,40.733261 -1.595138,14.519939 4.121913,27.945397 9.257473,41.0686992 5.296413,11.2183422 7.787183,23.9329168 17.75433,32.2995088 8.61834,8.764192 19.50788,14.910234 28.80381,22.969142 14.93569,9.333592 31.24659,17.348078 48.80146,20.128149 z"
       id="path21"
       inkscape:connector-curvature="0" />
  </g>
</svg>
