<!DOCTYPE svg PUBLIC "-//W3C//DTD SVG 20010904//EN" "http://www.w3.org/TR/2001/REC-SVG-20010904/DTD/svg10.dtd">
<svg version="1.0" xmlns="http://www.w3.org/2000/svg" width="438px" height="438px" viewBox="0 0 4380 4380" preserveAspectRatio="xMidYMid meet">
<g id="layer101" fill="#000000" stroke="none">
 <path d="M2730 4290 c0 -11 7 -20 15 -20 8 0 15 9 15 20 0 11 -7 20 -15 20 -8 0 -15 -9 -15 -20z"/>
 <path d="M3540 4145 c0 -8 5 -15 10 -15 6 0 10 7 10 15 0 8 -4 15 -10 15 -5 0 -10 -7 -10 -15z"/>
 <path d="M2160 4089 c-164 -7 -195 -12 -259 -44 -33 -17 -49 -21 -58 -13 -16 13 -89 3 -118 -16 -11 -7 -33 -16 -50 -20 -16 -4 -37 -13 -45 -20 -8 -7 -35 -18 -60 -25 -65 -19 -403 -184 -461 -226 -27 -19 -57 -35 -67 -35 -30 -1 -310 -321 -338 -387 -8 -17 -19 -35 -25 -38 -20 -13 -69 -88 -69 -107 0 -10 7 -18 15 -18 38 0 -1 -65 -51 -86 -27 -11 -34 -20 -34 -42 0 -15 5 -33 11 -39 8 -8 4 -21 -16 -47 -22 -29 -26 -43 -22 -70 6 -40 -15 -158 -38 -212 -19 -43 -30 -250 -14 -260 14 -8 11 -34 -3 -32 -9 2 -15 -25 -20 -92 -9 -112 -5 -136 34 -213 16 -32 26 -62 23 -68 -12 -18 16 -164 42 -219 14 -30 31 -79 39 -109 8 -30 23 -69 33 -85 10 -17 22 -46 26 -63 3 -18 12 -36 19 -40 7 -5 25 -41 40 -80 16 -42 47 -96 72 -126 24 -30 44 -57 44 -61 0 -8 18 -31 43 -54 10 -9 42 -41 71 -69 29 -29 58 -53 64 -53 6 0 12 -12 14 -27 4 -34 23 -40 39 -12 10 19 9 25 -7 36 -10 7 -14 13 -8 13 5 0 18 -7 28 -15 11 -8 31 -16 45 -16 23 -2 24 -2 4 -6 -19 -4 -21 -9 -16 -36 7 -37 18 -47 54 -47 15 0 32 -7 39 -15 7 -8 20 -15 30 -15 23 0 70 -38 70 -56 0 -8 8 -14 18 -14 9 0 48 -16 86 -35 37 -20 73 -35 80 -33 23 4 102 -24 123 -45 21 -18 26 -19 49 -7 23 13 27 12 35 -3 7 -11 23 -17 47 -17 24 0 52 -11 81 -30 24 -17 54 -30 67 -30 12 0 35 -5 51 -11 34 -13 99 -26 223 -44 215 -32 341 -29 348 8 3 14 -5 17 -45 17 -26 0 -55 5 -63 10 -11 7 0 10 38 10 52 0 87 -11 107 -35 14 -17 175 -8 175 10 0 17 23 25 49 18 13 -3 49 10 98 37 43 23 99 49 125 56 66 20 277 129 382 198 81 53 118 84 241 204 230 225 387 519 481 897 27 110 34 281 15 367 -6 26 -8 59 -5 75 6 30 -61 455 -102 642 -27 126 -63 217 -100 252 -13 12 -24 30 -24 38 0 31 -49 120 -89 164 -39 42 -51 67 -32 67 5 0 14 -6 20 -14 7 -8 25 -19 42 -25 23 -8 29 -7 29 4 0 20 -43 68 -77 85 -15 8 -53 31 -83 51 -30 20 -88 57 -128 84 -129 84 -484 236 -596 255 -28 5 -82 16 -121 24 -111 24 -332 46 -430 44 -50 -2 -155 -5 -235 -9z m348 -132 c25 -1 42 -7 42 -14 0 -16 30 -31 60 -30 14 0 37 -3 53 -7 21 -7 27 -5 27 8 0 23 42 20 141 -9 46 -14 94 -23 106 -20 16 4 25 -1 33 -15 11 -21 12 -21 41 8 l30 29 53 -17 c82 -28 208 -88 236 -114 14 -13 44 -33 66 -45 80 -39 192 -140 223 -198 6 -13 20 -23 31 -23 23 0 50 -36 50 -66 0 -11 13 -41 30 -65 20 -29 30 -57 30 -82 0 -22 8 -49 20 -65 11 -15 24 -51 30 -80 5 -29 14 -61 20 -72 14 -25 13 -27 -10 -33 -23 -6 -26 -34 -5 -61 8 -11 15 -27 15 -36 0 -9 14 -29 30 -45 21 -20 30 -38 30 -61 0 -23 7 -38 22 -48 21 -15 21 -19 11 -68 -11 -54 -9 -68 27 -223 7 -27 17 -115 22 -195 14 -193 -7 -339 -74 -516 -11 -31 -16 -62 -13 -77 8 -30 -8 -43 -25 -22 -21 25 -39 17 -50 -25 -6 -21 -15 -42 -20 -45 -5 -3 -25 -49 -46 -103 -21 -53 -49 -114 -63 -136 -14 -21 -33 -51 -42 -67 -30 -52 -68 -97 -103 -119 -19 -11 -38 -29 -41 -40 -3 -10 -26 -34 -49 -52 -24 -18 -90 -75 -146 -127 -65 -59 -105 -90 -111 -84 -19 19 -112 2 -149 -28 -19 -16 -68 -45 -108 -66 -41 -21 -92 -48 -115 -60 -72 -38 -149 -51 -372 -63 -211 -11 -219 -11 -288 10 -40 12 -88 30 -107 40 -21 11 -64 20 -106 23 -58 3 -92 13 -190 56 -128 57 -205 83 -297 101 -66 13 -241 98 -283 137 -16 14 -51 39 -79 56 -113 66 -145 105 -195 239 -12 33 -53 94 -105 158 -97 119 -107 144 -130 318 -8 62 -23 134 -34 160 -11 26 -31 90 -45 143 -43 160 -35 306 28 504 14 44 32 107 40 140 16 63 36 129 62 205 9 25 19 64 23 88 10 56 31 79 31 34 0 -41 12 -41 33 2 17 37 14 46 -15 46 -11 0 -17 4 -13 10 3 5 12 7 20 3 9 -3 22 1 31 8 17 14 64 102 64 120 0 6 12 23 28 38 73 73 142 151 142 161 0 8 -8 10 -21 7 -16 -4 -18 -3 -8 9 6 8 22 14 35 14 17 0 30 11 46 40 29 50 46 57 58 25 14 -36 30 -31 30 10 0 45 38 76 151 122 46 19 116 48 154 64 39 15 80 28 91 29 12 0 55 15 95 34 41 18 85 36 99 41 14 4 57 22 95 41 39 19 91 38 115 43 38 7 357 6 508 -2z m-1454 -373 c20 -8 21 -24 2 -24 -8 0 -16 7 -20 15 -6 17 -4 18 18 9z m-224 -364 c0 -11 -7 -20 -15 -20 -13 0 -14 4 -5 20 6 11 13 20 15 20 3 0 5 -9 5 -20z m-340 -1027 c0 -12 -4 -25 -10 -28 -6 -4 -10 11 -10 37 0 31 3 39 10 28 5 -8 10 -25 10 -37z m270 -769 c0 -8 -4 -12 -10 -9 -5 3 -10 13 -10 21 0 8 5 12 10 9 6 -3 10 -13 10 -21z m110 -189 c0 -1 7 -19 16 -40 8 -20 10 -34 5 -30 -6 3 -11 12 -11 19 0 7 -9 25 -21 40 -15 19 -16 24 -5 20 9 -3 16 -7 16 -9z m1115 -565 l60 -7 -60 -1 c-37 -1 -69 4 -85 14 l-25 15 25 -7 c14 -4 52 -10 85 -14z"/>
 <path d="M2270 3895 c0 -8 7 -15 15 -15 8 0 15 4 15 9 0 5 -7 11 -15 15 -9 3 -15 0 -15 -9z"/>
 <path d="M2115 3851 c-3 -6 -15 -11 -26 -11 -26 0 -77 -109 -113 -242 -23 -81 -26 -113 -24 -204 2 -73 7 -109 15 -111 7 -3 15 7 19 21 3 14 12 26 19 26 8 0 15 19 19 53 9 67 104 364 129 398 24 34 19 73 -10 77 -11 2 -24 -2 -28 -7z"/>
 <path d="M1870 3835 c-8 -8 -25 -23 -37 -33 l-22 -17 8 -265 c8 -231 12 -280 35 -379 14 -63 32 -124 40 -136 8 -12 12 -33 9 -49 -6 -28 8 -46 34 -46 18 0 43 59 43 105 0 23 -9 75 -20 116 -43 161 -50 468 -13 592 8 28 16 68 17 87 1 34 0 35 -39 38 -26 2 -45 -2 -55 -13z"/>
 <path d="M3035 3840 c-12 -19 15 -38 67 -49 28 -6 83 -25 122 -41 39 -17 76 -30 82 -30 6 0 19 -10 27 -22 14 -20 18 -21 26 -8 6 8 11 20 11 26 0 15 -182 100 -255 119 -70 18 -72 18 -80 5z"/>
 <path d="M2437 3763 c-12 -11 -8 -23 8 -23 8 0 15 7 15 15 0 16 -12 20 -23 8z"/>
 <path d="M2580 3761 c0 -6 -12 -9 -27 -8 -37 3 -52 -29 -96 -198 -63 -238 -79 -329 -71 -406 7 -77 23 -95 54 -63 18 18 50 118 50 156 0 44 23 118 36 118 8 0 14 7 14 15 0 8 -4 15 -10 15 -36 0 17 63 61 74 19 4 47 33 92 94 37 48 75 96 87 107 28 26 27 72 -4 86 -17 8 -29 8 -44 0 -11 -6 -32 -11 -47 -11 -26 0 -32 -10 -59 -84 -14 -39 -15 -8 -1 37 8 26 12 54 9 62 -7 16 -44 21 -44 6z"/>
 <path d="M2170 3680 c0 -11 7 -20 15 -20 8 0 15 9 15 20 0 11 -7 20 -15 20 -8 0 -15 -9 -15 -20z"/>
 <path d="M3047 3660 c-18 -22 -46 -63 -62 -91 -33 -62 -75 -208 -75 -265 0 -22 -7 -49 -15 -60 -21 -28 -18 -53 7 -63 18 -6 19 -9 5 -14 -12 -4 -17 -18 -17 -47 0 -46 14 -52 28 -12 l10 27 7 -33 c9 -38 41 -74 108 -119 26 -18 47 -37 47 -42 0 -5 -28 -10 -62 -13 -78 -5 -136 -32 -165 -78 -45 -72 -55 -79 -110 -82 l-53 -3 0 -36 c0 -33 -2 -36 -25 -31 -14 2 -25 8 -25 13 0 5 -7 9 -15 9 -8 0 -15 -4 -15 -9 0 -9 -8 -13 -133 -56 -73 -26 -80 -31 -112 -80 -19 -30 -39 -73 -45 -96 -17 -62 -3 -278 22 -349 26 -71 34 -225 19 -316 -15 -85 -41 -144 -86 -200 -19 -23 -39 -54 -44 -68 -13 -32 -45 -48 -150 -75 -97 -24 -116 -38 -124 -88 -4 -20 -18 -53 -33 -74 -49 -71 -35 -132 22 -94 21 13 24 14 24 1 0 -15 -18 -22 -140 -51 -77 -19 -83 -24 -74 -60 l7 -28 99 5 c112 6 131 15 185 89 l31 44 -23 55 c-23 52 -23 56 -6 73 15 15 93 48 185 77 35 11 55 37 56 72 0 17 14 41 39 67 84 87 133 242 133 421 0 89 -4 131 -21 185 -25 82 -26 95 -8 95 18 0 49 34 40 43 -3 4 -19 7 -35 7 -27 0 -28 2 -28 48 0 153 73 213 285 231 118 10 173 31 192 74 7 15 19 39 26 55 9 20 45 44 148 97 74 39 147 78 162 88 34 22 66 85 116 230 22 64 47 130 56 147 9 17 15 41 13 53 -2 18 8 28 57 54 l60 32 18 -20 c28 -34 20 -79 -33 -187 -39 -81 -54 -103 -75 -108 -17 -4 -33 -21 -47 -48 -25 -49 -110 -156 -138 -174 -11 -7 -49 -71 -85 -143 -35 -71 -73 -144 -84 -162 -10 -18 -40 -123 -65 -235 -25 -111 -53 -216 -61 -232 -12 -23 -13 -35 -5 -51 18 -32 3 -93 -31 -125 -16 -15 -29 -32 -29 -38 0 -6 -24 -49 -53 -96 -73 -116 -98 -160 -151 -268 -25 -51 -52 -99 -60 -107 -20 -20 -12 -40 40 -98 108 -121 56 -185 -196 -246 -167 -41 -232 -49 -445 -56 -180 -7 -305 1 -434 28 -58 11 -66 16 -72 41 -4 15 -13 34 -20 42 -15 18 -39 18 -39 0 0 -11 -5 -12 -24 -3 -14 7 -20 15 -14 18 20 12 -2 27 -54 39 -29 6 -76 22 -105 35 -28 14 -66 25 -83 25 -26 0 -45 13 -101 66 -50 49 -74 65 -88 61 -14 -3 -18 -1 -14 11 4 8 0 20 -8 26 -8 6 -19 20 -25 31 -15 28 -60 32 -73 7 -12 -22 -6 -32 21 -32 11 0 18 -7 18 -20 0 -13 9 -22 27 -26 24 -6 25 -8 9 -19 -16 -12 -15 -16 9 -51 14 -21 32 -45 40 -54 8 -8 29 -32 47 -52 19 -21 78 -61 138 -93 58 -31 118 -70 133 -86 18 -18 38 -29 56 -29 41 0 181 -38 209 -56 28 -18 38 -19 377 -5 262 10 362 20 433 45 24 9 80 22 125 31 193 36 336 154 337 276 0 40 -14 56 -77 88 -24 12 -43 29 -43 38 0 30 102 202 162 271 33 39 118 211 147 298 11 33 27 107 36 165 49 309 139 517 301 701 183 205 306 424 290 512 -10 51 -74 117 -141 145 -50 21 -62 22 -95 12 -103 -31 -230 -186 -230 -280 0 -39 15 -47 34 -19 13 19 16 20 16 5 0 -10 -10 -31 -21 -46 -16 -22 -20 -39 -16 -68 3 -28 -1 -49 -20 -80 -13 -24 -30 -43 -38 -43 -14 0 -95 86 -95 102 0 5 -9 21 -21 37 -39 53 -21 252 28 297 17 16 23 29 19 42 -10 29 20 104 49 125 20 15 25 27 25 59 0 37 -2 40 -24 36 -15 -3 -27 0 -30 8 -9 24 -34 15 -69 -26z m-1652 -2545 c28 -13 43 -24 35 -24 -17 -1 -100 35 -100 44 0 9 13 5 65 -20z"/>
 <path d="M3390 3660 c0 -16 58 -42 66 -28 4 6 -1 17 -11 25 -22 15 -55 17 -55 3z"/>
 <path d="M2004 3259 c-10 -17 13 -36 27 -22 12 12 4 33 -11 33 -5 0 -12 -5 -16 -11z"/>
 <path d="M1157 3233 c-24 -23 6 -353 45 -503 28 -108 97 -271 140 -332 31 -45 3 -32 -41 18 -103 118 -244 356 -277 470 -9 33 -23 68 -30 79 -8 11 -14 37 -14 58 0 70 -40 105 -60 52 -11 -28 -28 -33 -36 -10 -7 17 -34 21 -34 5 0 -6 6 -19 13 -30 10 -17 9 -22 -2 -29 -11 -7 -3 -34 39 -137 91 -225 183 -397 269 -507 96 -122 113 -142 129 -151 9 -5 45 -33 79 -63 61 -53 93 -66 93 -38 0 21 17 19 36 -4 8 -11 51 -56 93 -100 83 -87 96 -91 126 -44 l17 25 -169 169 c-117 119 -167 176 -165 189 2 10 -4 33 -13 49 -14 28 -14 31 0 31 27 0 17 55 -40 198 -58 148 -94 281 -124 467 -10 63 -24 122 -31 130 -13 16 -32 20 -43 8z"/>
 <path d="M915 3160 c-10 -16 15 -41 39 -38 32 5 28 42 -6 46 -14 2 -29 -2 -33 -8z"/>
 <path d="M3170 3065 c-7 -9 -10 -19 -6 -22 8 -9 38 9 44 25 5 17 -23 15 -38 -3z"/>
 <path d="M1430 2378 c0 -23 40 -80 60 -85 13 -3 20 -16 22 -37 2 -23 8 -31 23 -31 28 0 36 65 8 65 -10 1 -30 18 -45 40 -30 43 -68 70 -68 48z"/>
 <path d="M1490 2361 c0 -5 6 -14 14 -20 16 -13 32 2 21 19 -8 12 -35 13 -35 1z"/>
 <path d="M3840 1965 c0 -8 7 -15 15 -15 8 0 15 7 15 15 0 8 -7 15 -15 15 -8 0 -15 -7 -15 -15z"/>
 <path d="M3840 1890 c0 -11 5 -20 10 -20 6 0 10 9 10 20 0 11 -4 20 -10 20 -5 0 -10 -9 -10 -20z"/>
 <path d="M3827 1813 c-4 -3 -7 -20 -7 -37 1 -29 1 -30 15 -12 24 31 16 74 -8 49z"/>
 <path d="M3508 1449 c-30 -17 -20 -79 13 -79 28 0 53 44 39 69 -12 23 -26 26 -52 10z"/>
 <path d="M3352 1323 c5 -26 38 -29 38 -4 0 15 -6 21 -21 21 -14 0 -19 -5 -17 -17z"/>
 <path d="M1830 855 c0 -13 68 -45 94 -45 22 0 27 4 22 16 -3 9 -6 20 -6 25 0 5 -25 9 -55 9 -30 0 -55 -2 -55 -5z"/>
 <path d="M2770 755 c0 -10 7 -15 18 -13 21 4 19 22 -2 26 -10 2 -16 -3 -16 -13z"/>
 <path d="M1027 3743 c-10 -9 -9 -43 1 -43 10 0 42 33 42 43 0 9 -35 9 -43 0z"/>
 <path d="M3830 3505 c0 -8 7 -15 15 -15 8 0 15 7 15 15 0 8 -7 15 -15 15 -8 0 -15 -7 -15 -15z"/>
 <path d="M4207 2554 c-9 -10 2 -24 19 -24 8 0 14 7 14 15 0 15 -21 21 -33 9z"/>
 <path d="M410 2305 c0 -14 5 -25 10 -25 6 0 10 11 10 25 0 14 -4 25 -10 25 -5 0 -10 -11 -10 -25z"/>
 <path d="M4230 1411 c0 -20 17 -37 27 -28 7 8 -7 47 -18 47 -5 0 -9 -9 -9 -19z"/>
 <path d="M4337 994 c-11 -11 -8 -62 4 -70 15 -9 30 16 27 45 -3 25 -19 37 -31 25z"/>
 <path d="M3830 586 c0 -9 7 -16 16 -16 17 0 14 22 -4 28 -7 2 -12 -3 -12 -12z"/>
 <path d="M2447 153 c-13 -12 -7 -33 8 -33 8 0 15 9 15 20 0 20 -11 26 -23 13z"/>
 </g>

</svg>